<?xml version="1.0" encoding="UTF-8" standalone="no"?>
<svg
   xmlns:dc="http://purl.org/dc/elements/1.1/"
   xmlns:cc="http://creativecommons.org/ns#"
   xmlns:rdf="http://www.w3.org/1999/02/22-rdf-syntax-ns#"
   xmlns:svg="http://www.w3.org/2000/svg"
   xmlns="http://www.w3.org/2000/svg"
   xmlns:sodipodi="http://sodipodi.sourceforge.net/DTD/sodipodi-0.dtd"
   xmlns:inkscape="http://www.inkscape.org/namespaces/inkscape"
   id="svg2"
   sodipodi:docname="locksmith-logo.svg"
   viewBox="0 0 200 200"
   version="1.1"
   inkscape:version="0.48.5 r10040"
   width="100%"
   height="100%"
   inkscape:export-filename="/root/locksmith/img/locksmith-logo-16.png"
   inkscape:export-xdpi="7.2727275"
   inkscape:export-ydpi="7.2727275">
  <defs
     id="defs6" />
  <sodipodi:namedview
     id="namedview8"
     bordercolor="#666666"
     inkscape:pageshadow="2"
     guidetolerance="10"
     pagecolor="#ffffff"
     gridtolerance="10"
     inkscape:window-maximized="1"
     inkscape:zoom="1.8101934"
     objecttolerance="10"
     borderopacity="1"
     inkscape:current-layer="svg2"
     inkscape:cx="170.25054"
     inkscape:cy="76.741615"
     inkscape:window-y="0"
     inkscape:window-x="0"
     inkscape:window-width="1024"
     showgrid="false"
     inkscape:pageopacity="0"
     inkscape:window-height="720" />
  <metadata
     id="metadata6">
    <rdf:RDF>
      <cc:Work>
        <dc:format>image/svg+xml</dc:format>
        <dc:type
           rdf:resource="http://purl.org/dc/dcmitype/StillImage" />
        <cc:license
           rdf:resource="http://creativecommons.org/licenses/publicdomain/" />
        <dc:publisher>
          <cc:Agent
             rdf:about="http://openclipart.org/">
            <dc:title>Openclipart</dc:title>
          </cc:Agent>
        </dc:publisher>
        <dc:title></dc:title>
      </cc:Work>
      <cc:License
         rdf:about="http://creativecommons.org/licenses/publicdomain/">
        <cc:permits
           rdf:resource="http://creativecommons.org/ns#Reproduction" />
        <cc:permits
           rdf:resource="http://creativecommons.org/ns#Distribution" />
        <cc:permits
           rdf:resource="http://creativecommons.org/ns#DerivativeWorks" />
      </cc:License>
    </rdf:RDF>
  </metadata>
  <rect
     style="fill:#333333;fill-opacity:1;fill-rule:evenodd;stroke:none"
     id="rect2983"
     width="198"
     height="198"
     x="1"
     y="1"
     ry="25.41165" />
  <path
     id="path4"
     inkscape:connector-curvature="0"
     d="M 177,13 79.2,84.2 C 72.2,80.8 64.2,79 56,79 26.2,79 2,103.2 2,133 c 0,29.8 24.2,54 54,54 29.8,0 54,-24.2 54,-54 0,-1.6 0,-3 -0.2,-4.6 l 13.2,-9.4 -5,-9 10,-7 -2,-12 8,-6 16,7 6,-5 -2,-13 8,-6 8,4 5,-3 -1,-9 6,-5 12,6 6,-4 -4,-34 -90,65 -4,-7 91,-66 z M 56,87 c 25.4,0 46,20.6 46,46 0,25.4 -20.6,46 -46,46 -25.4,0 -46,-20.6 -46,-46 0,-25.4 20.6,-46 46,-46 z m -1,6 c -22.6,0 -41,18.4 -41,41 0,22.6 18.4,41 41,41 22.6,0 41,-18.4 41,-41 C 96,111.4 77.6,93 55,93 z m -11,32 c 8.8,0 16,7.2 16,16 0,8.8 -7.2,16 -16,16 -8.8,0 -16,-7.2 -16,-16 0,-8.8 7.2,-16 16,-16 z"
     style="fill:#ffffff;fill-opacity:1" />
</svg>
