<?xml version="1.0" encoding="UTF-8" standalone="no"?>
<!-- Created with Inkscape (http://www.inkscape.org/) -->

<svg
   xmlns:dc="http://purl.org/dc/elements/1.1/"
   xmlns:cc="http://creativecommons.org/ns#"
   xmlns:rdf="http://www.w3.org/1999/02/22-rdf-syntax-ns#"
   xmlns:svg="http://www.w3.org/2000/svg"
   xmlns="http://www.w3.org/2000/svg"
   xmlns:sodipodi="http://sodipodi.sourceforge.net/DTD/sodipodi-0.dtd"
   xmlns:inkscape="http://www.inkscape.org/namespaces/inkscape"
   width="256"
   height="256"
   id="svg2"
   version="1.1"
   inkscape:version="0.48.4 r9939"
   sodipodi:docname="abacus-logo.svg"
   inkscape:export-filename="D:\Users\c056814\Downloads\abacus-master\abacus-logo.png"
   inkscape:export-xdpi="5.6300001"
   inkscape:export-ydpi="5.6300001">
  <defs
     id="defs4" />
  <sodipodi:namedview
     id="base"
     pagecolor="#ffffff"
     bordercolor="#666666"
     borderopacity="1.0"
     inkscape:pageopacity="0.0"
     inkscape:pageshadow="2"
     inkscape:zoom="0.57590533"
     inkscape:cx="-57.608213"
     inkscape:cy="374.44376"
     inkscape:document-units="px"
     inkscape:current-layer="layer1"
     showgrid="false"
     inkscape:window-width="1280"
     inkscape:window-height="1005"
     inkscape:window-x="-4"
     inkscape:window-y="-4"
     inkscape:window-maximized="1" />
  <metadata
     id="metadata7">
    <rdf:RDF>
      <cc:Work
         rdf:about="">
        <dc:format>image/svg+xml</dc:format>
        <dc:type
           rdf:resource="http://purl.org/dc/dcmitype/StillImage" />
        <dc:title></dc:title>
      </cc:Work>
    </rdf:RDF>
  </metadata>
  <g
     inkscape:label="Layer 1"
     inkscape:groupmode="layer"
     id="layer1"
     transform="translate(0,-796.36218)">
    <g
       id="g3824"
       transform="matrix(0.63087904,0,0,0.63087904,188.41653,638.79952)">
      <path
         inkscape:connector-curvature="0"
         id="rect3755"
         d="m -276.875,271.53311 0,362.21875 362.21875,0 0,-362.21875 -362.21875,0 z m 9.53125,9.53125 343.15625,0 0,343.15625 -343.15625,0 0,-343.15625 z"
         style="fill:#000000;fill-opacity:1;stroke:none" />
      <g
         transform="translate(-12,0)"
         id="g3764">
        <path
           sodipodi:type="arc"
           style="fill:#000000;fill-opacity:1;stroke:none"
           id="path2985"
           sodipodi:cx="-186.6283"
           sodipodi:cy="5.6097565"
           sodipodi:rx="31.923262"
           sodipodi:ry="51.652924"
           d="m -154.70503,5.6097565 c 0,28.5271215 -14.29254,51.6529235 -31.92327,51.6529235 -17.63073,0 -31.92326,-23.125802 -31.92326,-51.6529235 0,-28.5271225 14.29253,-51.6529235 31.92326,-51.6529235 17.63073,0 31.92327,23.125801 31.92327,51.6529235 z"
           transform="matrix(0.91346154,0,0,0.91346154,-48.99465,335.16242)" />
        <path
           transform="matrix(0.91346154,0,0,0.91346154,-48.99465,444.7778)"
           d="m -154.70503,5.6097565 c 0,28.5271215 -14.29254,51.6529235 -31.92327,51.6529235 -17.63073,0 -31.92326,-23.125802 -31.92326,-51.6529235 0,-28.5271225 14.29253,-51.6529235 31.92326,-51.6529235 17.63073,0 31.92327,23.125801 31.92327,51.6529235 z"
           sodipodi:ry="51.652924"
           sodipodi:rx="31.923262"
           sodipodi:cy="5.6097565"
           sodipodi:cx="-186.6283"
           id="path3760"
           style="fill:#000000;fill-opacity:1;stroke:none"
           sodipodi:type="arc" />
        <path
           sodipodi:type="arc"
           style="fill:#000000;fill-opacity:1;stroke:none"
           id="path3762"
           sodipodi:cx="-186.6283"
           sodipodi:cy="5.6097565"
           sodipodi:rx="31.923262"
           sodipodi:ry="51.652924"
           d="m -154.70503,5.6097565 c 0,28.5271215 -14.29254,51.6529235 -31.92327,51.6529235 -17.63073,0 -31.92326,-23.125802 -31.92326,-51.6529235 0,-28.5271225 14.29253,-51.6529235 31.92326,-51.6529235 17.63073,0 31.92327,23.125801 31.92327,51.6529235 z"
           transform="matrix(0.91346154,0,0,0.91346154,-48.99465,559.87395)" />
      </g>
      <path
         transform="matrix(0.91346154,0,0,0.91346154,19.00535,444.7778)"
         d="m -154.70503,5.6097565 c 0,28.5271215 -14.29254,51.6529235 -31.92327,51.6529235 -17.63073,0 -31.92326,-23.125802 -31.92326,-51.6529235 0,-28.5271225 14.29253,-51.6529235 31.92326,-51.6529235 17.63073,0 31.92327,23.125801 31.92327,51.6529235 z"
         sodipodi:ry="51.652924"
         sodipodi:rx="31.923262"
         sodipodi:cy="5.6097565"
         sodipodi:cx="-186.6283"
         id="path3773"
         style="fill:#000000;fill-opacity:1;stroke:none"
         sodipodi:type="arc" />
      <path
         sodipodi:type="arc"
         style="fill:#000000;fill-opacity:1;stroke:none"
         id="path3775"
         sodipodi:cx="-186.6283"
         sodipodi:cy="5.6097565"
         sodipodi:rx="31.923262"
         sodipodi:ry="51.652924"
         d="m -154.70503,5.6097565 c 0,28.5271215 -14.29254,51.6529235 -31.92327,51.6529235 -17.63073,0 -31.92326,-23.125802 -31.92326,-51.6529235 0,-28.5271225 14.29253,-51.6529235 31.92326,-51.6529235 17.63073,0 31.92327,23.125801 31.92327,51.6529235 z"
         transform="matrix(0.91346154,0,0,0.91346154,19.00535,559.87395)" />
      <path
         inkscape:connector-curvature="0"
         id="path3785"
         d="m 77.907779,564.99825 -346.127319,0"
         style="fill:none;stroke:#000000;stroke-width:8.76062202;stroke-linecap:butt;stroke-linejoin:miter;stroke-miterlimit:4;stroke-opacity:1;stroke-dasharray:none" />
      <path
         style="fill:none;stroke:#000000;stroke-width:8.76062202;stroke-linecap:butt;stroke-linejoin:miter;stroke-miterlimit:4;stroke-opacity:1;stroke-dasharray:none"
         d="m 77.907779,449.9021 -346.127319,0"
         id="path3787"
         inkscape:connector-curvature="0" />
      <path
         inkscape:connector-curvature="0"
         id="path3789"
         d="m 77.907779,340.28672 -346.127319,0"
         style="fill:none;stroke:#000000;stroke-width:8.76062202;stroke-linecap:butt;stroke-linejoin:miter;stroke-miterlimit:4;stroke-opacity:1;stroke-dasharray:none" />
      <g
         id="g3805"
         transform="translate(260,0)">
        <path
           transform="matrix(0.91346154,0,0,0.91346154,-48.99465,335.16242)"
           d="m -154.70503,5.6097565 c 0,28.5271215 -14.29254,51.6529235 -31.92327,51.6529235 -17.63073,0 -31.92326,-23.125802 -31.92326,-51.6529235 0,-28.5271225 14.29253,-51.6529235 31.92326,-51.6529235 17.63073,0 31.92327,23.125801 31.92327,51.6529235 z"
           sodipodi:ry="51.652924"
           sodipodi:rx="31.923262"
           sodipodi:cy="5.6097565"
           sodipodi:cx="-186.6283"
           id="path3807"
           style="fill:#000000;fill-opacity:1;stroke:none"
           sodipodi:type="arc" />
        <path
           sodipodi:type="arc"
           style="fill:#000000;fill-opacity:1;stroke:none"
           id="path3809"
           sodipodi:cx="-186.6283"
           sodipodi:cy="5.6097565"
           sodipodi:rx="31.923262"
           sodipodi:ry="51.652924"
           d="m -154.70503,5.6097565 c 0,28.5271215 -14.29254,51.6529235 -31.92327,51.6529235 -17.63073,0 -31.92326,-23.125802 -31.92326,-51.6529235 0,-28.5271225 14.29253,-51.6529235 31.92326,-51.6529235 17.63073,0 31.92327,23.125801 31.92327,51.6529235 z"
           transform="matrix(0.91346154,0,0,0.91346154,-48.99465,444.7778)" />
      </g>
      <path
         sodipodi:type="arc"
         style="fill:#000000;fill-opacity:1;stroke:none"
         id="path3815"
         sodipodi:cx="-186.6283"
         sodipodi:cy="5.6097565"
         sodipodi:rx="31.923262"
         sodipodi:ry="51.652924"
         d="m -154.70503,5.6097565 c 0,28.5271215 -14.29254,51.6529235 -31.92327,51.6529235 -17.63073,0 -31.92326,-23.125802 -31.92326,-51.6529235 0,-28.5271225 14.29253,-51.6529235 31.92326,-51.6529235 17.63073,0 31.92327,23.125801 31.92327,51.6529235 z"
         transform="matrix(0.91346154,0,0,0.91346154,139.00535,335.16242)" />
      <path
         sodipodi:type="arc"
         style="fill:#000000;fill-opacity:1;stroke:none"
         id="path3819"
         sodipodi:cx="-186.6283"
         sodipodi:cy="5.6097565"
         sodipodi:rx="31.923262"
         sodipodi:ry="51.652924"
         d="m -154.70503,5.6097565 c 0,28.5271215 -14.29254,51.6529235 -31.92327,51.6529235 -17.63073,0 -31.92326,-23.125802 -31.92326,-51.6529235 0,-28.5271225 14.29253,-51.6529235 31.92326,-51.6529235 17.63073,0 31.92327,23.125801 31.92327,51.6529235 z"
         transform="matrix(0.91346154,0,0,0.91346154,99.00535,559.87395)" />
    </g>
  </g>
</svg>
